<svg width="1385" height="1388" viewBox="0 0 1385 1388" fill="none" xmlns="http://www.w3.org/2000/svg">
<path d="M1215.72 424.708C1211.97 437.347 1212.4 449.168 1214.85 460.336C1214.85 460.445 1214.96 460.609 1214.96 460.772C1215.72 464.586 1216.81 468.29 1218.01 471.94C1218.07 472.049 1218.07 472.213 1218.12 472.321C1227 502.448 1254.68 581.44 1313.46 634.774C1313.57 634.883 1313.68 635.046 1313.73 635.155C1281.48 924.813 1077.95 1057.85 1048.1 1075.93C1046.14 1073.43 1044.28 1070.65 1042.54 1067.6C1026.85 1043.36 1017.21 1022.71 1015.08 1007.67C1012.74 990.677 1011.38 971.065 1009.96 950.309C1005.22 881.503 999.339 795.919 950.582 725.152C907.381 662.394 905.855 651.989 903.567 636.19C902.859 631.56 902.096 626.33 900.734 619.847C894.088 588.413 879.761 549.571 849.199 542.87C846.475 542.325 843.751 541.998 840.972 541.998C809.757 541.998 793.359 572.669 770.26 637.498C762.47 626.384 754.244 614.29 747.652 604.103C728.857 575.012 694.427 541.944 676.777 535.951C672.8 534.589 668.659 533.936 664.465 533.936C661.523 533.936 658.636 534.372 655.857 535.025C624.26 483.98 597.021 434.024 582.476 404.933C553.984 347.949 578.444 262.746 663.593 245.912C663.593 222.814 682.497 192.306 706.685 197.59C730.873 202.82 756.096 236.488 777.07 232.238C794.067 224.502 791.234 225.429 808.013 224.012C824.847 222.541 830.131 208.649 841.136 192.796C851.759 177.543 930.152 169.534 991.276 180.648C993.728 181.084 996.179 181.574 998.576 182.064C1060.57 195.193 1093.48 228.098 1100.99 244.06C1107.2 257.298 1133.41 256.317 1142.72 251.85C1144.69 250.979 1145.88 249.889 1146.05 248.745C1146.97 242.262 1142.45 221.343 1244.6 165.503C1246.45 164.414 1248.36 163.378 1250.32 162.343C1358.35 104.107 1344.24 133.198 1344.24 133.198C1344.24 133.198 1306.59 188.329 1297.6 228.588C1297.5 229.024 1297.39 229.514 1297.28 229.95C1289.81 265.742 1263.72 333.24 1237.03 382.106C1233.59 388.426 1230.16 394.418 1226.73 399.975C1225.8 401.5 1224.88 403.08 1224.01 404.66C1223.3 405.968 1222.64 407.275 1221.99 408.583C1221.17 410.217 1220.41 411.851 1219.7 413.54C1219.05 415.011 1218.45 416.536 1217.9 418.062C1217.85 418.171 1217.85 418.225 1217.79 418.334C1217.03 420.459 1216.32 422.583 1215.72 424.708Z" fill="#5A5E62"/>
<path d="M1017.36 1094.89C843.523 1201.88 652.688 1173.34 619.947 1167.35C620.655 1165.28 621.635 1162.99 622.834 1160.54C625.558 1155.03 628.227 1149.48 630.515 1143.76C638.85 1122.35 646.804 1104.21 652.688 1091.3C657.209 1081.54 649.419 1070.65 639.45 1072.77C634.655 1073.81 575.602 1080.89 555.935 1030.5C548.744 1012.03 525.373 987.733 520.961 955.537C516.602 923.286 543.024 920.671 563.126 884.28C577.726 857.913 570.045 839.336 564.706 831.164C562.364 827.623 561.873 823.047 563.453 818.961C569.173 804.034 587.096 769.496 636.072 742.148C649.419 734.249 670.992 716.38 672.409 684.238C672.626 679.281 671.7 674.323 670.12 669.692C650.89 613.853 654.594 586.396 657.427 576.536C658.462 573.103 661.84 571.251 665.054 572.286C670.938 574.302 700.519 598.708 718.932 627.2C733.805 650.244 757.121 682.822 766.165 695.297C768.507 698.511 772.702 699.274 775.916 697.095C783.434 692.083 789.1 684.619 793.24 672.525C819.553 596.257 831.974 578.279 840.963 580.186C849.951 582.147 860.901 600.778 867.493 631.994C874.085 663.21 864.824 665.443 922.407 749.066C979.99 832.69 971.001 942.462 981.46 1017.59C983.912 1035.24 992.574 1055.23 1004.4 1075.55C1007.56 1080.94 1010.99 1086.28 1014.8 1091.3C1015.73 1092.55 1016.6 1093.75 1017.36 1094.89Z" fill="#A69686"/>
<path d="M444.702 0L393.874 45.9792C229.951 194.322 134.833 404.497 133.362 625.622V630.143C133.307 633.031 133.307 635.918 133.307 638.86C133.253 661.686 134.56 684.294 137.175 706.467C137.175 706.521 137.121 706.576 137.066 706.63C85.7482 776.961 91.0325 927.101 91.0325 927.101L76.1056 958.589L76.2691 959.57C27.675 865.542 0.109256 759.31 0.000300826 647.358C-0.272088 351.98 184.462 99.6397 444.702 0Z" fill="#526274"/>
<path d="M1384.61 646.65C1384.61 1025.81 1079.69 1333.83 701.727 1338.9C540.037 1341.08 389.461 1285.73 269.556 1192.3H269.774C269.774 1192.3 270.1 1181.73 271.68 1166.91C274.186 1143.49 279.852 1109.49 292.436 1090.21C300.227 1078.33 304.748 1070.1 307.309 1064.49C418.225 1157.98 561.447 1214.25 717.853 1214.25C1070.05 1214.25 1355.57 928.735 1355.57 576.537C1355.57 481.419 1334.76 391.204 1297.39 310.141C1352.95 409.726 1384.61 524.565 1384.61 646.65Z" fill="#526274"/>
<path d="M184.679 1129.05C221.179 1090.64 274.023 1043.52 274.023 1043.52C261.221 1072.28 243.352 1091.95 234.635 1149.21C228.153 1191.97 235.671 1297.93 235.671 1297.93C235.671 1297.93 242.044 1390.05 227.444 1387.33C212.844 1384.61 196.719 1255.71 196.719 1255.71C196.719 1255.71 203.365 1413.21 178.088 1348.6C159.02 1299.84 147.471 1214.31 147.471 1214.31C147.471 1214.31 150.794 1268.79 150.794 1323.48C115.22 1281.53 121.322 1206.79 121.322 1206.79C121.322 1206.79 148.179 1167.46 184.679 1129.05Z" fill="#9AB5CB"/>
<path d="M129.82 936.308C126.17 876.11 134.396 769.389 185.442 702.817C236.542 636.245 246.566 647.195 257.516 617.995C268.466 588.795 276.856 565.097 291.347 555.073C256.59 566.95 195.411 556.054 176.78 467.528C176.78 467.528 205.49 505.008 256.699 507.46C307.908 509.966 322.889 507.46 322.889 507.46C322.889 507.46 376.55 493.459 432.771 508.55C488.937 523.694 522.659 572.343 481.474 594.842C477.987 596.749 474.719 598.438 471.668 599.963C476.353 602.088 484.525 607.971 483.762 622.898C482.672 643.654 468.726 654.441 468.726 649.756C468.726 645.071 461.208 637.226 455.488 637.934C449.877 638.642 441.378 640.494 434.242 628.4C437.401 633.467 437.674 645.016 440.071 651.172C442.577 657.6 458.321 656.184 468.726 654.386C455.978 670.13 437.347 670.675 428.957 669.967C428.957 672.691 428.957 675.469 429.012 678.465C430.156 743.512 424 737.192 424 737.192C424 737.192 410.272 685.983 372.845 677.267C372.845 677.267 418.062 704.833 420.132 770.587C422.202 836.342 422.529 911.521 338.306 975.696C220.253 1065.64 141.479 1143.43 99.1494 1214.25C68.0426 1109.22 84.277 1017.48 129.929 936.308H129.82Z" fill="#9AB5CB"/>
</svg>
